<?xml version="1.0" encoding="UTF-8"?>
<svg version="1.1" xmlns="http://www.w3.org/2000/svg" width="138" height="135">
<path d="M0 0 C45.54 0 91.08 0 138 0 C138 44.55 138 89.1 138 135 C92.46 135 46.92 135 0 135 C0 90.45 0 45.9 0 0 Z " fill="#DA2626" transform="translate(0,0)"/>
<path d="M0 0 C2.0360882 1.27754554 4.04109119 2.60699818 6 4 C6.99 4 7.98 4 9 4 C9.66 3.34 10.32 2.68 11 2 C13.125 2.375 13.125 2.375 15 3 C15.80967438 5.91482778 16.21845993 7.46113217 15.0625 10.3125 C14.711875 10.869375 14.36125 11.42625 14 12 C14.680625 12.804375 15.36125 13.60875 16.0625 14.4375 C18.42532546 17.9859425 18.28999314 20.75538484 17.62890625 24.875 C16.74346581 27.86679876 15.18475716 29.81524284 13 32 C13.33 32.66 13.66 33.32 14 34 C14.57791538 41.0505676 14.57791538 41.0505676 12.25 44.875 C9.22663151 47.73040357 7.30530642 48.73300551 3.25 49.5625 C-1.74902878 48.69728348 -4.48427462 45.49328458 -8 42 C-8.825 41.195625 -9.65 40.39125 -10.5 39.5625 C-10.995 39.046875 -11.49 38.53125 -12 38 C-15.45201639 39.47721422 -17.64961936 41.43794001 -20.25 44.125 C-20.95640625 44.84945312 -21.6628125 45.57390625 -22.390625 46.3203125 C-22.92171875 46.87460938 -23.4528125 47.42890625 -24 48 C-22.61558884 51.15645744 -21.01286304 53.15750056 -18.5 55.5 C-15.99944103 57.83102955 -14.24498981 59.78692023 -13 63 C-13.19170237 68.27181513 -14.25818556 71.25818556 -18 75 C-22.47254497 76.49084832 -26.52745503 76.49084832 -31 75 C-31.886875 75.804375 -32.77375 76.60875 -33.6875 77.4375 C-36.1440246 79.62515126 -37.75792372 80.42532891 -41.0625 80.5625 C-45.3250272 79.95356754 -46.99742856 79.00257144 -50 76 C-50.556875 76.350625 -51.11375 76.70125 -51.6875 77.0625 C-54.53886783 78.21845993 -56.08517222 77.80967438 -59 77 C-59.6875 75.25 -59.6875 75.25 -60 73 C-58.5625 70.75 -58.5625 70.75 -57 69 C-57.54140625 68.34644531 -57.54140625 68.34644531 -58.09375 67.6796875 C-60.37626288 64.75046264 -61.87350283 62.61983613 -62.625 58.9375 C-61.97849009 55.89890343 -61.43060574 55.10258877 -59.4375 52.875 C-58.633125 51.92625 -57.82875 50.9775 -57 50 C-57.10417827 47.99660454 -57.10417827 47.99660454 -58 46 C-58.60034813 41.45450704 -58.24653746 38.72524725 -55.5625 35.0625 C-53.06322664 32.46913635 -51.22739018 31.43092222 -47.625 31.125 C-41.89192974 31.56897514 -38.87770302 35.12229698 -35 39 C-33.35 40.32 -31.7 41.64 -30 43 C-26.37 39.37 -22.74 35.74 -19 32 C-19.886875 30.96875 -20.77375 29.9375 -21.6875 28.875 C-22.23019531 28.23175781 -22.77289063 27.58851562 -23.33203125 26.92578125 C-24.35518003 25.7444877 -25.40951667 24.58836696 -26.51171875 23.48046875 C-29.09549743 20.79304279 -30.37423225 18.67096116 -30.625 15 C-30.34029347 10.36462181 -28.25278384 8.17533661 -25 5 C-22.28565462 3.64282731 -20.60788093 4.25166351 -17.625 4.6875 C-13.20262776 5.2775487 -13.20262776 5.2775487 -9.4375 3.125 C-8.963125 2.42375 -8.48875 1.7225 -8 1 C-5.13391871 -0.43304064 -3.18699217 -0.30644155 0 0 Z " fill="#FDF7F7" transform="translate(92,28)"/>
<path d="M0 0 C3.33727786 1.17255709 5.77437487 2.18868404 8 5 C8 5.66 8 6.32 8 7 C8.598125 7.2475 9.19625 7.495 9.8125 7.75 C12.36513531 9.20864875 13.56732558 10.43626682 15 13 C14.6875 15.25 14.6875 15.25 14 17 C10.42355152 18.2380014 7.66305234 17.74926071 4 17 C3.40802387 19.19914497 3.40802387 19.19914497 4 22 C5.60623566 23.77719507 5.60623566 23.77719507 7.5625 25.5 C9.5078125 27.28515625 9.5078125 27.28515625 11 29 C10.9375 31.9375 10.9375 31.9375 10 34 C7.86083984 34.31713867 7.86083984 34.31713867 5 34 C2.85985066 32.36891895 1.09868371 30.82393281 -0.7734375 28.92578125 C-1.30143951 28.40493454 -1.82944153 27.88408783 -2.3734436 27.34745789 C-3.48387462 26.24479838 -4.58796079 25.13571729 -5.68603516 24.02075195 C-7.3712779 22.3162646 -9.08381456 20.64315951 -10.80078125 18.97070312 C-11.87677398 17.89500071 -12.95105401 16.81758181 -14.0234375 15.73828125 C-14.53788422 15.23911697 -15.05233093 14.7399527 -15.58236694 14.22566223 C-16.98974609 12.77075195 -16.98974609 12.77075195 -19 10 C-18.81103516 7.14135742 -18.81103516 7.14135742 -18 5 C-16.24609375 4.25 -16.24609375 4.25 -14 4 C-11.76570677 5.91891585 -10.00293241 8.07010738 -8.09765625 10.3125 C-6.08776252 12.32944773 -6.08776252 12.32944773 -3.24609375 11.75 C-2.50488281 11.5025 -1.76367188 11.255 -1 11 C-1.2165625 10.13375 -1.2165625 10.13375 -1.4375 9.25 C-1.623125 8.5075 -1.80875 7.765 -2 7 C-2.2475 6.319375 -2.495 5.63875 -2.75 4.9375 C-2.87375 3.9784375 -2.87375 3.9784375 -3 3 C-1.5625 1.25 -1.5625 1.25 0 0 Z " fill="#DD2D2D" transform="translate(88,35)"/>
<path d="M0 0 C4.8933698 0.28229944 7.12543551 2.59841069 10.51953125 5.953125 C11.02296555 6.45036072 11.52639984 6.94759644 12.04508972 7.4598999 C13.10301145 8.51073804 14.15585253 9.56671292 15.20385742 10.62744141 C16.80921178 12.24668334 18.4371354 13.84046526 20.06835938 15.43359375 C21.09520244 16.45948577 22.12064284 17.48678408 23.14453125 18.515625 C24.07628174 19.44665039 25.00803223 20.37767578 25.96801758 21.33691406 C28 24 28 24 28.3034668 26.84277344 C28.15325073 27.91060059 28.15325073 27.91060059 28 29 C25.75390625 29.75 25.75390625 29.75 23 30 C20.90234375 28.3125 20.90234375 28.3125 18.9375 26 C17.06900547 23.68915116 17.06900547 23.68915116 15 22 C12.78426042 22.13707438 12.78426042 22.13707438 11 23 C11.09539063 23.62648438 11.19078125 24.25296875 11.2890625 24.8984375 C11.39992188 25.71570313 11.51078125 26.53296875 11.625 27.375 C11.79902344 28.59316406 11.79902344 28.59316406 11.9765625 29.8359375 C11.98429687 30.55007812 11.99203125 31.26421875 12 32 C11.34 32.66 10.68 33.32 10 34 C6.81084932 33.66267052 5.17753606 32.54202093 2.984375 30.27734375 C2.45585938 29.73916016 1.92734375 29.20097656 1.3828125 28.64648438 C0.84398437 28.08251953 0.30515625 27.51855469 -0.25 26.9375 C-0.80429687 26.36966797 -1.35859375 25.80183594 -1.9296875 25.21679688 C-3.29334214 23.81787531 -4.64760417 22.40980886 -6 21 C-4.25 17.109375 -4.25 17.109375 -2 16.125 C-1.34 16.08375 -0.68 16.0425 0 16 C0.66 16.66 1.32 17.32 2 18 C4.10820797 17.6814823 4.10820797 17.6814823 6 17 C5.91096553 14.06186245 5.36987295 12.3898896 3.33984375 10.25 C2.04773588 9.05807544 0.73406899 7.88903532 -0.6015625 6.74609375 C-2 5 -2 5 -1.7734375 2.84765625 C-1 1 -1 1 0 0 Z " fill="#DC2C2C" transform="translate(43,67)"/>
</svg>
